<svg xmlns="http://www.w3.org/2000/svg" width="252" height="47" viewBox="0 0 252 47" fill="none">
    <path
        d="M7.34507 39.4931H16.592V45.0417C16.592 45.5639 16.4608 45.9121 16.1985 46.0861C15.9799 46.2602 15.6739 46.3472 15.2804 46.3472H0V2.48056C0 2.04539 0.0437191 1.69722 0.131162 1.43611C0.218605 1.175 0.480929 1.00092 0.918134 0.913884C1.39906 0.783328 2.14231 0.718051 3.14789 0.718051C4.15348 0.674534 5.55251 0.652773 7.34507 0.652773V39.4931ZM17.5967 23.2389C17.5967 18.8 17.8372 15.1009 18.3181 12.1417C18.8427 9.18239 19.6297 6.81067 20.679 5.02639C21.7283 3.19861 23.0399 1.91483 24.6139 1.175C26.1878 0.435183 28.0241 0.0652728 30.1227 0.0652728C32.265 0.0652728 34.0794 0.413422 35.5659 1.10972C37.0524 1.806 38.2547 3.02455 39.1728 4.76528C40.091 6.506 40.7468 8.856 41.1403 11.8153C41.5775 14.7746 41.7961 18.4954 41.7961 22.9778C41.7961 27.5472 41.5556 31.3768 41.0747 34.4667C40.5938 37.5129 39.8287 39.9718 38.7794 41.8431C37.7738 43.6708 36.484 44.9764 34.9101 45.7597C33.3798 46.5431 31.5436 46.9347 29.4013 46.9347C27.259 46.9347 25.4227 46.6083 23.8925 45.9556C22.406 45.3028 21.1818 44.106 20.2199 42.3653C19.3018 40.581 18.6241 38.1657 18.1869 35.1194C17.7934 32.0296 17.5967 28.0694 17.5967 23.2389ZM25.9911 24.8708C25.9911 27.4384 26.0348 29.6361 26.1222 31.4639C26.2097 33.2917 26.3846 34.7931 26.6469 35.9681C26.9092 37.1431 27.2808 38.0134 27.7618 38.5792C28.2864 39.1014 28.9641 39.3625 29.7948 39.3625C30.5817 39.3625 31.2375 39.0796 31.7622 38.5139C32.2868 37.9046 32.6803 36.9472 32.9427 35.6417C33.2487 34.3361 33.4454 32.6607 33.5329 30.6153C33.664 28.5699 33.7296 26.1111 33.7296 23.2389C33.7296 20.4102 33.6859 17.9949 33.5985 15.9931C33.5548 13.9912 33.4017 12.381 33.1394 11.1625C32.8771 9.90045 32.4836 8.98656 31.9589 8.42083C31.4343 7.85511 30.7348 7.57222 29.8603 7.57222C29.1171 7.57222 28.4831 7.87683 27.9585 8.48611C27.4776 9.09539 27.0841 10.0746 26.778 11.4236C26.472 12.7727 26.2534 14.5569 26.1222 16.7764C26.0348 18.9958 25.9911 21.694 25.9911 24.8708ZM52.4991 0.652773C54.5541 0.652773 56.3684 0.848606 57.9423 1.24027C59.5598 1.63194 60.8935 2.35 61.9428 3.39444C63.0356 4.39539 63.8666 5.76622 64.4348 7.50694C65.003 9.24767 65.2874 11.4454 65.2874 14.1C65.2874 17.3639 64.8504 19.975 63.9758 21.9333C63.1453 23.8482 62.0519 25.3278 60.6967 26.3722C61.2214 27.0685 61.7896 27.9607 62.4018 29.0486C63.0576 30.0931 63.6479 31.3768 64.1725 32.9C64.7407 34.3796 65.2218 36.1204 65.6153 38.1222C66.0088 40.1241 66.2491 42.3871 66.3367 44.9111C66.3367 45.2157 66.2931 45.4768 66.2055 45.6944C66.162 45.9121 66.0088 46.0861 65.7465 46.2167C65.4841 46.3472 65.0907 46.4343 64.566 46.4778C64.0849 46.5213 63.4076 46.5431 62.533 46.5431C61.2649 46.5431 59.8221 46.4778 58.2046 46.3472C58.117 43.8232 57.9203 41.5819 57.6144 39.6236C57.3521 37.6653 57.0022 35.9898 56.5651 34.5972C56.1716 33.1611 55.7346 31.9643 55.2535 31.0069C54.7724 30.0496 54.3354 29.2879 53.9419 28.7222H52.3679V45.0417C52.3679 45.3898 52.3244 45.6509 52.2368 45.825C52.1492 45.9991 51.8653 46.1296 51.3842 46.2167C50.9472 46.2602 50.2258 46.3037 49.2201 46.3472C48.2145 46.3472 46.8154 46.3472 45.0229 46.3472V1.95833C44.9792 1.69722 45.0229 1.47961 45.154 1.30555C45.3289 0.870367 45.7224 0.652773 46.3345 0.652773H52.4991ZM57.0242 13.7083C57.0242 11.3583 56.7839 9.66111 56.3028 8.61667C55.8658 7.52872 55.1444 6.98472 54.1386 6.98472H52.3679V21.9986H53.6796C54.2042 21.9986 54.6633 21.8898 55.0568 21.6722C55.4502 21.4546 55.8002 21.0412 56.1061 20.4319C56.4119 19.7792 56.6307 18.9306 56.7619 17.8861C56.9366 16.7982 57.0242 15.4056 57.0242 13.7083ZM85.6954 39.8194C85.6954 41.3426 85.6733 42.5393 85.6298 43.4097C85.6298 44.2801 85.5862 44.9329 85.4986 45.3681C85.4551 45.8032 85.3239 46.0861 85.1051 46.2167C84.9304 46.3037 84.6896 46.3472 84.3838 46.3472H69.1034V1.95833C69.1034 1.69722 69.169 1.47961 69.3001 1.30555C69.3877 1.13148 69.4969 0.979167 69.628 0.848611C69.8027 0.718051 70.0651 0.652773 70.415 0.652773H86.1544C86.1544 2.13239 86.1324 3.30739 86.0889 4.17778C86.0889 5.00461 86.0453 5.65739 85.9577 6.13611C85.9141 6.57128 85.783 6.85417 85.5642 6.98472C85.3895 7.11528 85.1487 7.18056 84.8428 7.18056H76.4485V18.2778H84.3838C84.3838 19.6704 84.3617 20.8018 84.3182 21.6722C84.3182 22.4991 84.2746 23.1736 84.187 23.6958C84.1435 24.1746 84.0338 24.5009 83.8591 24.675C83.6844 24.8491 83.4436 24.9361 83.1377 24.9361H76.4485V39.8194H85.6954ZM108.613 0C111.935 0 114.253 0.326384 115.564 0.979162C116.876 1.63194 117.532 2.52406 117.532 3.65556C117.532 4.26483 117.401 4.93934 117.138 5.67917C116.876 6.37545 116.439 7.07178 115.827 7.76806C115.477 7.50694 114.755 7.22406 113.663 6.91944C112.57 6.61483 111.389 6.4625 110.121 6.4625C108.504 6.4625 107.236 6.74539 106.318 7.31111C105.399 7.83333 104.94 8.66017 104.94 9.79167C104.94 10.7926 105.115 11.7282 105.465 12.5986C105.815 13.4254 106.427 14.4264 107.301 15.6014L113.597 23.6306C114.384 24.6315 115.018 25.5889 115.499 26.5028C116.023 27.3732 116.439 28.2435 116.745 29.1139C117.051 29.9407 117.248 30.7893 117.335 31.6597C117.466 32.4866 117.532 33.3569 117.532 34.2708C117.532 35.9246 117.357 37.5129 117.007 39.0361C116.657 40.5593 116.023 41.9083 115.105 43.0833C114.231 44.2583 113.007 45.2157 111.433 45.9556C109.902 46.6518 107.957 47 105.596 47C102.623 47 100.437 46.5648 99.038 45.6944C97.6829 44.7806 97.005 43.7579 97.005 42.6264C97.005 41.8866 97.1362 41.0379 97.3985 40.0806C97.6608 39.1232 98.0763 38.2093 98.6445 37.3389C99.3439 37.9482 100.241 38.4704 101.333 38.9056C102.426 39.2972 103.563 39.4931 104.744 39.4931C106.58 39.4931 107.826 39.0361 108.482 38.1222C109.181 37.2083 109.531 35.9898 109.531 34.4667C109.531 33.3352 109.312 32.2907 108.875 31.3333C108.482 30.3324 107.717 29.0704 106.58 27.5472L100.612 19.5833C99.8686 18.5824 99.2568 17.6685 98.7757 16.8417C98.2946 15.9713 97.9232 15.1444 97.6608 14.3611C97.3985 13.5778 97.2018 12.8379 97.0706 12.1417C96.983 11.4454 96.9394 10.7273 96.9394 9.9875C96.9394 7.02822 97.9011 4.63472 99.825 2.80694C101.792 0.935645 104.722 0 108.613 0ZM120.467 1.95833C120.467 1.47961 120.532 1.15324 120.663 0.979162C120.838 0.761573 121.21 0.652773 121.778 0.652773H127.943C129.998 0.652773 131.812 0.848606 133.386 1.24027C135.004 1.63194 136.337 2.35 137.387 3.39444C138.479 4.39539 139.31 5.76622 139.879 7.50694C140.447 9.24767 140.731 11.4454 140.731 14.1C140.731 17.0593 140.36 19.4963 139.616 21.4111C138.917 23.2824 137.977 24.7621 136.796 25.85C135.616 26.9379 134.282 27.6996 132.796 28.1347C131.309 28.5264 129.801 28.7222 128.271 28.7222H127.812V45.0417C127.812 45.3898 127.768 45.6509 127.681 45.825C127.593 45.9991 127.309 46.1296 126.828 46.2167C126.391 46.2602 125.67 46.3037 124.664 46.3472C123.702 46.3472 122.303 46.3472 120.467 46.3472V1.95833ZM132.468 13.1861C132.468 9.05184 131.506 6.98472 129.582 6.98472H127.812V21.9986H129.123C129.648 21.9986 130.107 21.8898 130.501 21.6722C130.894 21.4111 131.244 20.9759 131.55 20.3667C131.856 19.7139 132.074 18.8218 132.206 17.6903C132.38 16.5153 132.468 15.0139 132.468 13.1861ZM143.265 3.85139C143.265 3.06806 143.308 2.45878 143.396 2.02361C143.483 1.58844 143.767 1.28379 144.248 1.10972C144.73 0.892128 145.472 0.761573 146.478 0.718051C147.484 0.674534 148.905 0.652773 150.741 0.652773V45.0417C150.741 45.3898 150.697 45.6509 150.61 45.825C150.522 45.9991 150.238 46.1296 149.757 46.2167C149.32 46.2602 148.577 46.3037 147.527 46.3472C146.522 46.3472 145.101 46.3472 143.265 46.3472V3.85139ZM164.962 28.8528C164.612 27.9389 164.241 26.9162 163.847 25.7847C163.497 24.6097 163.148 23.3912 162.798 22.1292C162.492 20.8236 162.186 19.5398 161.88 18.2778C161.618 16.9722 161.355 15.7537 161.093 14.6222C161.355 17.2333 161.574 19.8444 161.749 22.4556C161.924 25.0232 162.011 27.3296 162.011 29.375V45.0417C162.011 45.3898 161.968 45.6509 161.88 45.825C161.792 45.9991 161.509 46.1296 161.027 46.2167C160.59 46.2602 159.869 46.3037 158.863 46.3472C157.902 46.3472 156.502 46.3472 154.666 46.3472V1.95833C154.666 1.08796 155.103 0.652773 155.978 0.652773H161.814L168.635 17.8208C168.985 18.7782 169.334 19.8227 169.684 20.9542C170.034 22.0421 170.362 23.1736 170.668 24.3486C171.018 25.5236 171.324 26.6986 171.586 27.8736C171.892 29.0486 172.154 30.1583 172.373 31.2028C172.067 28.5046 171.848 26.0458 171.717 23.8264C171.629 21.6069 171.586 19.3875 171.586 17.1681V1.95833C171.586 1.65372 171.629 1.41435 171.717 1.24027C171.805 1.02268 172.067 0.892128 172.504 0.848611C172.985 0.761573 173.728 0.718051 174.734 0.718051C175.74 0.674534 177.138 0.652773 178.931 0.652773V45.0417C178.931 45.9121 178.494 46.3472 177.619 46.3472H171.914L164.962 28.8528ZM193.142 28.8528C192.792 27.9389 192.42 26.9162 192.027 25.7847C191.677 24.6097 191.327 23.3912 190.977 22.1292C190.672 20.8236 190.365 19.5398 190.059 18.2778C189.797 16.9722 189.535 15.7537 189.272 14.6222C189.535 17.2333 189.753 19.8444 189.928 22.4556C190.103 25.0232 190.19 27.3296 190.19 29.375V45.0417C190.19 45.3898 190.147 45.6509 190.059 45.825C189.972 45.9991 189.688 46.1296 189.207 46.2167C188.77 46.2602 188.048 46.3037 187.043 46.3472C186.081 46.3472 184.682 46.3472 182.845 46.3472V1.95833C182.845 1.08796 183.282 0.652773 184.157 0.652773H189.994L196.814 17.8208C197.164 18.7782 197.514 19.8227 197.863 20.9542C198.213 22.0421 198.541 23.1736 198.847 24.3486C199.197 25.5236 199.503 26.6986 199.765 27.8736C200.071 29.0486 200.333 30.1583 200.552 31.2028C200.246 28.5046 200.028 26.0458 199.896 23.8264C199.809 21.6069 199.765 19.3875 199.765 17.1681V1.95833C199.765 1.65372 199.809 1.41435 199.896 1.24027C199.984 1.02268 200.246 0.892128 200.683 0.848611C201.165 0.761573 201.907 0.718051 202.913 0.718051C203.919 0.674534 205.318 0.652773 207.11 0.652773V45.0417C207.11 45.9121 206.673 46.3472 205.799 46.3472H200.093L193.142 28.8528ZM227.617 39.8194C227.617 41.3426 227.595 42.5393 227.551 43.4097C227.551 44.2801 227.508 44.9329 227.42 45.3681C227.376 45.8032 227.245 46.0861 227.026 46.2167C226.852 46.3037 226.611 46.3472 226.305 46.3472H211.025V1.95833C211.025 1.69722 211.09 1.47961 211.221 1.30555C211.309 1.13148 211.418 0.979167 211.549 0.848611C211.724 0.718051 211.986 0.652773 212.336 0.652773H228.076C228.076 2.13239 228.054 3.30739 228.01 4.17778C228.01 5.00461 227.967 5.65739 227.879 6.13611C227.835 6.57128 227.704 6.85417 227.486 6.98472C227.311 7.11528 227.07 7.18056 226.764 7.18056H218.37V18.2778H226.305C226.305 19.6704 226.283 20.8018 226.24 21.6722C226.24 22.4991 226.196 23.1736 226.108 23.6958C226.065 24.1746 225.955 24.5009 225.78 24.675C225.606 24.8491 225.365 24.9361 225.059 24.9361H218.37V39.8194H227.617ZM238.162 0.652773C240.217 0.652773 242.032 0.848606 243.606 1.24027C245.223 1.63194 246.557 2.35 247.606 3.39444C248.699 4.39539 249.53 5.76622 250.098 7.50694C250.666 9.24767 250.951 11.4454 250.951 14.1C250.951 17.3639 250.514 19.975 249.639 21.9333C248.809 23.8482 247.715 25.3278 246.36 26.3722C246.885 27.0685 247.453 27.9607 248.065 29.0486C248.721 30.0931 249.311 31.3768 249.836 32.9C250.404 34.3796 250.885 36.1204 251.279 38.1222C251.672 40.1241 251.912 42.3871 252 44.9111C252 45.2157 251.956 45.4768 251.869 45.6944C251.825 45.9121 251.672 46.0861 251.41 46.2167C251.147 46.3472 250.754 46.4343 250.229 46.4778C249.748 46.5213 249.071 46.5431 248.196 46.5431C246.928 46.5431 245.485 46.4778 243.868 46.3472C243.78 43.8232 243.584 41.5819 243.278 39.6236C243.015 37.6653 242.665 35.9898 242.228 34.5972C241.835 33.1611 241.398 31.9643 240.917 31.0069C240.436 30.0496 239.999 29.2879 239.605 28.7222H238.031V45.0417C238.031 45.3898 237.988 45.6509 237.9 45.825C237.812 45.9991 237.529 46.1296 237.048 46.2167C236.611 46.2602 235.889 46.3037 234.883 46.3472C233.878 46.3472 232.479 46.3472 230.686 46.3472V1.95833C230.643 1.69722 230.686 1.47961 230.817 1.30555C230.992 0.870367 231.386 0.652773 231.998 0.652773H238.162ZM242.688 13.7083C242.688 11.3583 242.447 9.66111 241.966 8.61667C241.529 7.52872 240.808 6.98472 239.802 6.98472H238.031V21.9986H239.343C239.868 21.9986 240.327 21.8898 240.72 21.6722C241.114 21.4546 241.464 21.0412 241.769 20.4319C242.075 19.7792 242.294 18.9306 242.425 17.8861C242.6 16.7982 242.688 15.4056 242.688 13.7083Z"
        fill="#43FEE5"/>
</svg>
